<svg width="48" height="38" viewBox="0 0 48 38" fill="none" xmlns="http://www.w3.org/2000/svg">
<path d="M48.018 34.8047L12.4791 37.4917L0.0703429 30.7064L0.0385742 3.26617L31.0166 0.519531L47.8863 6.87163L48.018 34.8047Z" fill="#DAAE87"/>
<path d="M30.9911 0.5L48.0387 6.85296L12.4801 9.42778L0.0473984 3.26595L30.9911 0.5Z" fill="#E8BD97"/>
<path d="M12.4868 9.42814V37.4995L0.0405273 30.7152V3.23828L12.4868 9.42814Z" fill="#C49972"/>
<path d="M1.76465 24.75V29.9201L7.44104 32.977V27.5783L1.76465 24.75Z" fill="#DAAE87"/>
<path d="M12.7075 2.1336L26.9193 8.40221L34.776 7.91449L19.1052 1.56641L12.7075 2.1336Z" fill="#F5D0B0"/>
<path d="M23.9826 15.331L26.6982 15.1916L30.3348 23.8928L30.4784 23.8855L34.115 14.8107L36.8306 14.6712V26.9372L34.7012 27.0465V18.6197L34.5876 18.6255L31.2021 27.1903L29.6111 27.272L26.2256 19.037L26.112 19.0428V27.4876L23.9826 27.597V15.331Z" fill="#5F4F40"/>
<path d="M15.2495 32.0654V34.5604L46.5191 32.0656V29.6681L15.2495 32.0654Z" fill="#5F4F40"/>
</svg>
