<svg width="40" height="32" viewBox="0 0 40 32" fill="none" xmlns="http://www.w3.org/2000/svg">
<path d="M39.9926 29.1516L10.4188 31.3876L0.0928427 25.7412L0.0664062 2.90672L25.8448 0.621094L39.8831 5.90702L39.9926 29.1516Z" fill="#DAAE87"/>
<path d="M25.8237 0.605469L40.0099 5.8921L10.4197 8.03475L0.0737597 2.90716L25.8237 0.605469Z" fill="#E8BD97"/>
<path d="M10.4251 8.03567V31.3953L0.0678711 25.7498V2.88476L10.4251 8.03567Z" fill="#C49972"/>
<path d="M1.50244 20.7852V25.0874L6.22607 27.6312V23.1387L1.50244 20.7852Z" fill="#DAAE87"/>
<path d="M10.6089 1.96614L22.4353 7.18257L28.9732 6.77672L15.9327 1.49414L10.6089 1.96614Z" fill="#F5D0B0"/>
<path d="M27.3311 15.2294C27.2847 14.7966 27.0889 14.4677 26.7438 14.2429C26.402 14.0179 25.9573 13.9194 25.4098 13.9475C25.0249 13.9673 24.6947 14.0424 24.4193 14.1728C24.1439 14.3033 23.9332 14.4719 23.7872 14.6788C23.6412 14.8856 23.5665 15.1171 23.5632 15.3731C23.5632 15.5857 23.6113 15.7677 23.7076 15.9189C23.8071 16.07 23.9415 16.196 24.1107 16.2969C24.28 16.3945 24.4674 16.4746 24.6732 16.5372C24.8789 16.5997 25.0863 16.6505 25.2954 16.6896L26.251 16.8798C26.6359 16.9497 27.0059 17.052 27.361 17.1866C27.7193 17.321 28.0396 17.4973 28.3216 17.7154C28.607 17.9333 28.8326 18.2025 28.9985 18.5229C29.1645 18.8433 29.2474 19.2245 29.2474 19.6664C29.2474 20.2645 29.0948 20.799 28.7895 21.2699C28.4842 21.7374 28.0429 22.1139 27.4655 22.3994C26.8914 22.6814 26.1963 22.8434 25.38 22.8853C24.5869 22.926 23.8984 22.8385 23.3143 22.6226C22.7337 22.4065 22.279 22.071 21.9505 21.6161C21.6253 21.161 21.4495 20.5952 21.4229 19.9187L23.2397 19.8254C23.2662 20.1796 23.3757 20.4697 23.5682 20.6957C23.7607 20.9217 24.0112 21.085 24.3198 21.1854C24.6317 21.2857 24.9801 21.3259 25.365 21.3062C25.7665 21.2856 26.1183 21.2077 26.4202 21.0726C26.7255 20.9339 26.9644 20.7522 27.137 20.5274C27.3095 20.2992 27.3975 20.0389 27.4008 19.7463C27.3975 19.4807 27.3195 19.2654 27.1669 19.1004C27.0142 18.9322 26.8002 18.797 26.5248 18.6948C26.2527 18.5892 25.9341 18.4992 25.5691 18.4249L24.4094 18.1854C23.5699 18.0126 22.9062 17.7194 22.4184 17.3059C21.9339 16.8888 21.6917 16.3148 21.6917 15.5838C21.6917 14.9824 21.8543 14.4474 22.1795 13.9789C22.508 13.5101 22.9543 13.1367 23.5184 12.8585C24.0825 12.577 24.7213 12.4179 25.4347 12.3813C26.1581 12.3441 26.7919 12.4379 27.3361 12.6624C27.8836 12.8835 28.3133 13.2087 28.6252 13.6379C28.9372 14.0638 29.0981 14.5639 29.108 15.1382L27.3311 15.2294Z" fill="#5F4F40"/>
<path d="M12.7241 26.872V28.9482L38.7452 26.8722V24.877L12.7241 26.872Z" fill="#5F4F40"/>
</svg>
