<svg width="34" height="28" viewBox="0 0 34 28" fill="none" xmlns="http://www.w3.org/2000/svg">
<path d="M33.9952 25.1772L8.86304 27.0774L0.0878957 22.279L0.0654297 2.87399L21.9723 0.931641L33.9021 5.42368L33.9952 25.1772Z" fill="#DAAE87"/>
<path d="M21.9539 0.917969L34.0095 5.41062L8.86343 7.23146L0.0713139 2.87398L21.9539 0.917969Z" fill="#E8BD97"/>
<path d="M8.86857 7.23277V27.0841L0.0668945 22.2864V2.85547L8.86857 7.23277Z" fill="#C49972"/>
<path d="M1.28613 18.0664V21.7225L5.30033 23.8843V20.0665L1.28613 18.0664Z" fill="#DAAE87"/>
<path d="M9.0249 2.07298L19.0751 6.50598L24.6311 6.16108L13.5491 1.67188L9.0249 2.07298Z" fill="#F5D0B0"/>
<path d="M15.6042 11.4568L17.5118 14.5354L17.5795 14.5319L19.4956 11.257L21.2849 11.1651L18.6158 15.6392L21.3272 19.8371L19.5083 19.9305L17.5795 16.8741L17.5118 16.8776L15.583 20.1321L13.7726 20.225L16.5094 15.7474L13.8065 11.5491L15.6042 11.4568ZM27.2246 13.2446C27.1852 12.8767 27.0188 12.5972 26.7255 12.4062C26.4351 12.215 26.0572 12.1313 25.5919 12.1552C25.2648 12.172 24.9842 12.2358 24.7502 12.3467C24.5161 12.4575 24.3371 12.6008 24.213 12.7766C24.0889 12.9524 24.0255 13.1491 24.0226 13.3667C24.0226 13.5474 24.0635 13.702 24.1453 13.8305C24.2299 13.9589 24.3441 14.0659 24.4879 14.1517C24.6317 14.2347 24.7911 14.3028 24.9659 14.3559C25.1407 14.409 25.317 14.4522 25.4946 14.4855L26.3068 14.6471C26.6339 14.7065 26.9483 14.7934 27.25 14.9078C27.5546 15.022 27.8267 15.1718 28.0664 15.3572C28.3089 15.5424 28.5007 15.7711 28.6417 16.0434C28.7826 16.3157 28.8531 16.6397 28.8531 17.0152C28.8531 17.5234 28.7234 17.9777 28.464 18.3778C28.2046 18.7751 27.8295 19.0951 27.3389 19.3377C26.851 19.5774 26.2602 19.715 25.5665 19.7506C24.8926 19.7853 24.3075 19.7108 23.8112 19.5274C23.3177 19.3438 22.9313 19.0587 22.6522 18.672C22.3758 18.2853 22.2264 17.8045 22.2038 17.2296L23.7477 17.1503C23.7703 17.4513 23.8633 17.6978 24.0269 17.8899C24.1904 18.082 24.4033 18.2207 24.6656 18.306C24.9307 18.3913 25.2267 18.4255 25.5539 18.4087C25.8951 18.3911 26.194 18.325 26.4506 18.2101C26.71 18.0923 26.913 17.9379 27.0597 17.7468C27.2063 17.553 27.281 17.3317 27.2839 17.0831C27.281 16.8573 27.2148 16.6744 27.0851 16.5342C26.9553 16.3912 26.7735 16.2763 26.5394 16.1895C26.3082 16.0997 26.0375 16.0233 25.7273 15.9602L24.7417 15.7566C24.0283 15.6097 23.4643 15.3606 23.0498 15.0091C22.6381 14.6548 22.4322 14.167 22.4322 13.5458C22.4322 13.0347 22.5704 12.58 22.8467 12.1818C23.1259 11.7835 23.5052 11.4661 23.9846 11.2297C24.464 10.9905 25.0068 10.8553 25.6131 10.8242C26.2278 10.7926 26.7664 10.8723 27.2289 11.0631C27.6942 11.251 28.0593 11.5273 28.3244 11.8921C28.5895 12.254 28.7262 12.679 28.7347 13.167L27.2246 13.2446Z" fill="#5F4F40"/>
<path d="M10.8223 23.2403V25.0047L32.9353 23.2405V21.545L10.8223 23.2403Z" fill="#5F4F40"/>
</svg>
