<svg width="42" height="42" viewBox="0 0 42 42" fill="none" xmlns="http://www.w3.org/2000/svg">
<path d="M6.3833 26.4784V0L41.9922 10.5001V36.9785L6.3833 26.4784Z" fill="url(#paint0_linear_13756_30399)"/>
<g clip-path="url(#clip0_13756_30399)">
<path d="M11.9892 13.2953V10.3605M14.509 11.0357V12.2977C14.5091 12.4208 14.4765 12.5328 14.4149 12.6215C14.3532 12.7102 14.2648 12.7722 14.1593 12.8007L12.2695 13.2987C12.1829 13.3221 12.0867 13.3206 11.9892 13.2945C11.8916 13.2683 11.7954 13.2182 11.7088 13.1484L9.81898 11.6377C9.71349 11.5527 9.62509 11.4433 9.56343 11.3216C9.50178 11.1998 9.46923 11.0703 9.46936 10.9473V9.68534M12.9876 7.10958C13.0661 7.08519 13.1545 7.08503 13.2443 7.10911C13.3342 7.13319 13.4226 7.18072 13.501 7.24715L14.8239 8.37118C14.9176 8.45113 14.9956 8.55164 15.0498 8.66242C15.104 8.7732 15.1326 8.89029 15.1326 9.00172C15.1326 9.11315 15.104 9.21492 15.0498 9.29664C14.9956 9.37836 14.9176 9.43709 14.8239 9.46683L10.9875 10.6758C10.9089 10.7012 10.8198 10.7018 10.7293 10.6775C10.6387 10.6533 10.5497 10.605 10.471 10.5374L9.15438 9.41507C9.06069 9.33512 8.98275 9.23462 8.92851 9.12383C8.87428 9.01305 8.8457 8.89596 8.8457 8.78453C8.8457 8.67311 8.87428 8.57133 8.92851 8.48961C8.98275 8.40789 9.06069 8.34916 9.15438 8.31942L12.9876 7.10958ZM14.8239 10.9342C14.9176 10.9045 14.9956 10.8457 15.0498 10.764C15.104 10.6823 15.1326 10.5805 15.1326 10.4691C15.1326 10.3577 15.104 10.2406 15.0498 10.1298C14.9956 10.019 14.9176 9.91853 14.8239 9.83857L10.9907 6.57124C10.9125 6.50396 10.824 6.45588 10.734 6.43174C10.6439 6.40761 10.5554 6.40828 10.4773 6.43367L9.15438 6.85203C9.06069 6.88177 8.98275 6.9405 8.92851 7.02222C8.87428 7.10394 8.8457 7.20571 8.8457 7.31714C8.8457 7.42857 8.87428 7.54566 8.92851 7.65644C8.98275 7.76722 9.06069 7.86773 9.15438 7.94768L12.9908 11.2126C13.0689 11.28 13.1574 11.3282 13.2475 11.3523C13.3376 11.3764 13.4261 11.3757 13.5042 11.3502L14.8239 10.9342Z" stroke="white" stroke-width="0.447205" stroke-linecap="round" stroke-linejoin="round"/>
<path d="M11.9893 7.46697L9.62695 8.30138L11.9893 10.4017L14.3516 9.56734L11.9893 7.46697Z" fill="white"/>
</g>
<path d="M20.3229 8.99436V11.2666L17.8902 10.6148V8.34252L18.3501 8.46575V10.3571L18.8893 10.5016V8.61023L19.3238 8.72666V10.618L19.8662 10.7633V8.87198L20.3229 8.99436ZM22.4419 11.8344L21.982 11.7112V10.7983C21.982 10.4875 22.0042 10.2023 22.0486 9.94273L21.3572 11.5437L20.7863 11.3908V9.11852L21.2462 9.24175V10.1644C21.2462 10.3483 21.2398 10.4999 21.2271 10.619C21.2166 10.7366 21.2007 10.8659 21.1796 11.0069L21.8837 9.41257L22.4419 9.56214V11.8344ZM25.271 11.4432C25.271 11.7694 25.1801 11.9924 24.9982 12.1122C24.8164 12.2298 24.5637 12.2508 24.2402 12.175V12.441L23.7866 12.3195V12.0502C23.4589 11.9471 23.2051 11.7893 23.0254 11.577C22.8457 11.3625 22.7558 11.0965 22.7558 10.7791C22.7558 10.4529 22.8467 10.231 23.0286 10.1134C23.2104 9.99354 23.4631 9.97149 23.7866 10.0472V9.80096L24.2402 9.92249V10.172C24.5679 10.2752 24.8216 10.434 25.0014 10.6486C25.1811 10.8609 25.271 11.1258 25.271 11.4432ZM24.2211 11.8613C24.422 11.902 24.5679 11.8787 24.6588 11.7914C24.7498 11.7041 24.7952 11.5456 24.7952 11.3157C24.7952 11.0902 24.7487 10.9092 24.6557 10.7726C24.5626 10.6361 24.4178 10.536 24.2211 10.4723V11.8613ZM23.2316 10.9066C23.2316 11.132 23.2781 11.3131 23.3711 11.4496C23.4642 11.5862 23.609 11.6863 23.8056 11.75V10.361C23.6048 10.3203 23.4589 10.3436 23.3679 10.4309C23.277 10.5182 23.2316 10.6767 23.2316 10.9066ZM26.9284 10.7643L26.8777 11.1283L26.3226 10.9796V12.8742L25.8564 12.7493V10.8547L25.2728 10.6983V10.3207L26.9284 10.7643Z" fill="white"/>
<path d="M18.4643 12.4963C18.8069 12.5881 19.0807 12.7425 19.2858 12.9594C19.493 13.1748 19.5966 13.497 19.5966 13.926C19.5966 14.3463 19.4951 14.6157 19.2921 14.7343C19.0912 14.8512 18.8333 14.8675 18.5182 14.783L17.8902 14.6148V12.3425L18.4643 12.4963ZM18.3565 12.8221V14.3851L18.5468 14.4361C18.7265 14.4842 18.865 14.4644 18.9623 14.3767C19.0616 14.2873 19.1113 14.0937 19.1113 13.796C19.1113 13.5902 19.086 13.4236 19.0352 13.2962C18.9866 13.1693 18.921 13.0751 18.8386 13.0136C18.7561 12.95 18.6557 12.9023 18.5373 12.8705L18.3565 12.8221ZM21.263 13.2463L21.2122 13.584L20.4193 13.3715V13.9626L21.1108 14.1479V14.4959L20.4193 14.3106V14.9378L21.2693 15.1656V15.5202L19.9531 15.1675V12.8953L21.263 13.2463ZM22.095 13.4692V15.354L22.9641 15.5868L22.9133 15.9607L21.6288 15.6165V13.3443L22.095 13.4692ZM23.7087 13.9016V16.1738L23.2425 16.0489V13.7767L23.7087 13.9016ZM25.767 14.4531L25.1358 16.5562L24.5681 16.4041L23.9147 13.9568L24.4127 14.0902L24.8599 16.0817L25.2912 14.3256L25.767 14.4531ZM27.2843 14.8597L27.2335 15.1974L26.4406 14.9849V15.576L27.1321 15.7613V16.1093L26.4406 15.924V16.5512L27.2906 16.779V17.1336L25.9744 16.7809V14.5087L27.2843 14.8597ZM28.3542 16.5287L28.1163 16.465V17.3548L27.6501 17.2299V14.9577L28.3351 15.1412C28.6291 15.22 28.85 15.3361 28.998 15.4896C29.146 15.6409 29.2201 15.8304 29.2201 16.058C29.2201 16.2069 29.1841 16.3199 29.1122 16.3969C29.0424 16.4745 28.9335 16.5274 28.7855 16.5556L29.3533 17.6863L28.8236 17.5444L28.3542 16.5287ZM28.1163 16.1235L28.3605 16.1889C28.4853 16.2224 28.5794 16.2191 28.6428 16.1792C28.7062 16.1371 28.738 16.0536 28.738 15.9289C28.738 15.8128 28.7041 15.7195 28.6365 15.6488C28.5709 15.5765 28.4673 15.5214 28.3256 15.4835L28.1163 15.4274V16.1235ZM31.1325 15.8908L30.4284 17.1174V17.9744L29.9622 17.8494V16.9957L29.2581 15.3885L29.7687 15.5254L30.2064 16.6737L30.6409 15.7591L31.1325 15.8908Z" fill="white"/>
<rect width="16.98" height="5.27636" rx="0.782609" transform="matrix(0.961262 0.275637 0 1 21.9058 23.4844)" fill="white" fill-opacity="0.5"/>
<path d="M-0.0078125 31.4999V5.02148L35.6011 15.5216V42L-0.0078125 31.4999Z" fill="url(#paint1_linear_13756_30399)"/>
<g clip-path="url(#clip1_13756_30399)">
<path d="M5.59805 18.3168V15.382M8.11786 16.0572V17.3191C8.11798 17.4423 8.08543 17.5543 8.02378 17.643C7.96212 17.7317 7.87372 17.7937 7.76823 17.8222L5.87838 18.3202C5.79179 18.3435 5.69563 18.3421 5.59805 18.316C5.50046 18.2898 5.40431 18.2397 5.31772 18.1699L3.42787 16.6592C3.32237 16.5742 3.23398 16.4648 3.17232 16.3431C3.11066 16.2213 3.07812 16.0918 3.07824 15.9688V14.7068M6.59652 12.1311C6.67497 12.1067 6.76335 12.1065 6.85323 12.1306C6.94311 12.1547 7.03148 12.2022 7.10993 12.2686L8.43283 13.3927C8.52652 13.4726 8.60446 13.5731 8.6587 13.6839C8.71293 13.7947 8.74151 13.9118 8.74151 14.0232C8.74151 14.1346 8.71293 14.2364 8.6587 14.3181C8.60446 14.3998 8.52652 14.4586 8.43283 14.4883L4.59643 15.6973C4.51774 15.7227 4.42873 15.7233 4.33815 15.699C4.24756 15.6747 4.15855 15.6264 4.07987 15.5589L2.76327 14.4366C2.66958 14.3566 2.59163 14.2561 2.5374 14.1453C2.48317 14.0345 2.45459 13.9174 2.45459 13.806C2.45459 13.6946 2.48317 13.5928 2.5374 13.5111C2.59163 13.4294 2.66958 13.3706 2.76327 13.3409L6.59652 12.1311ZM8.43283 15.9557C8.52652 15.926 8.60446 15.8672 8.6587 15.7855C8.71293 15.7038 8.74151 15.602 8.74151 15.4906C8.74151 15.3792 8.71293 15.2621 8.6587 15.1513C8.60446 15.0405 8.52652 14.94 8.43283 14.8601L4.59958 11.5927C4.52142 11.5254 4.43293 11.4774 4.34287 11.4532C4.25281 11.4291 4.16432 11.4298 4.08616 11.4552L2.76327 11.8735C2.66958 11.9033 2.59163 11.962 2.5374 12.0437C2.48317 12.1254 2.45459 12.2272 2.45459 12.3386C2.45459 12.4501 2.48317 12.5671 2.5374 12.6779C2.59163 12.7887 2.66958 12.8892 2.76327 12.9692L6.59967 16.2341C6.67778 16.3015 6.76629 16.3496 6.85638 16.3738C6.94646 16.3979 7.03497 16.3972 7.11308 16.3716L8.43283 15.9557Z" stroke="white" stroke-width="0.447205" stroke-linecap="round" stroke-linejoin="round"/>
<path d="M5.59767 12.4885L3.23535 13.3229L5.59767 15.4232L7.95999 14.5888L5.59767 12.4885Z" fill="white"/>
</g>
<path d="M13.9318 14.0158V16.2881L11.4991 15.6363V13.364L11.959 13.4872V15.3786L12.4982 15.5231V13.6317L12.9327 13.7481V15.6395L13.4751 15.7848V13.8935L13.9318 14.0158ZM16.0508 16.8559L15.5909 16.7326V15.8198C15.5909 15.509 15.6131 15.2238 15.6575 14.9642L14.9661 16.5652L14.3952 16.4123V14.14L14.8551 14.2632V15.1859C14.8551 15.3698 14.8487 15.5213 14.836 15.6405C14.8255 15.7581 14.8096 15.8874 14.7885 16.0284L15.4926 14.4341L16.0508 14.5836V16.8559ZM18.8799 16.4647C18.8799 16.7908 18.7889 17.0138 18.6071 17.1337C18.4253 17.2513 18.1726 17.2723 17.8491 17.1965V17.4625L17.3955 17.341V17.0717C17.0678 16.9686 16.814 16.8108 16.6343 16.5985C16.4546 16.384 16.3647 16.118 16.3647 15.8006C16.3647 15.4744 16.4556 15.2525 16.6375 15.1349C16.8193 15.015 17.072 14.993 17.3955 15.0687V14.8224L17.8491 14.944V15.1935C18.1768 15.2967 18.4305 15.4555 18.6103 15.67C18.79 15.8824 18.8799 16.1472 18.8799 16.4647ZM17.83 16.8828C18.0309 16.9235 18.1768 16.9002 18.2677 16.8129C18.3586 16.7256 18.4041 16.567 18.4041 16.3372C18.4041 16.1117 18.3576 15.9307 18.2646 15.7941C18.1715 15.6575 18.0267 15.5574 17.83 15.4938V16.8828ZM16.8405 15.9281C16.8405 16.1535 16.887 16.3346 16.98 16.4711C17.073 16.6077 17.2179 16.7078 17.4145 16.7714V15.3825C17.2137 15.3418 17.0678 15.3651 16.9768 15.4524C16.8859 15.5396 16.8405 15.6982 16.8405 15.9281ZM20.5373 15.7858L20.4866 16.1498L19.9315 16.0011V17.8957L19.4653 17.7708V15.8761L18.8817 15.7198V15.3422L20.5373 15.7858Z" fill="white"/>
<path d="M12.0732 17.5178C12.4157 17.6096 12.6896 17.764 12.8947 17.9809C13.1019 18.1963 13.2055 18.5184 13.2055 18.9475C13.2055 19.3678 13.104 19.6372 12.901 19.7558C12.7001 19.8727 12.4422 19.8889 12.1271 19.8045L11.4991 19.6363V17.364L12.0732 17.5178ZM11.9654 17.8436V19.4066L12.1557 19.4576C12.3354 19.5057 12.4739 19.4859 12.5712 19.3981C12.6705 19.3087 12.7202 19.1152 12.7202 18.8175C12.7202 18.6117 12.6948 18.4451 12.6441 18.3177C12.5955 18.1908 12.5299 18.0966 12.4475 18.0351C12.365 17.9714 12.2646 17.9237 12.1461 17.892L11.9654 17.8436ZM14.8719 18.2677L14.8211 18.6055L14.0282 18.393V18.9841L14.7196 19.1693V19.5174L14.0282 19.3321V19.9593L14.8782 20.1871V20.5417L13.562 20.189V17.9167L14.8719 18.2677ZM15.7039 18.4907V20.3755L16.5729 20.6083L16.5222 20.9822L15.2376 20.638V18.3657L15.7039 18.4907ZM17.3176 18.9231V21.1953L16.8514 21.0704V18.7981L17.3176 18.9231ZM19.3759 19.4746L18.7447 21.5777L18.177 21.4256L17.5236 18.9783L18.0216 19.1117L18.4688 21.1032L18.9001 19.3471L19.3759 19.4746ZM20.8932 19.8811L20.8424 20.2189L20.0495 20.0064V20.5975L20.7409 20.7827V21.1308L20.0495 20.9455V21.5727L20.8995 21.8005V22.1551L19.5833 21.8024V19.5301L20.8932 19.8811ZM21.9631 21.5502L21.7252 21.4865V22.3763L21.2589 22.2514V19.9791L21.944 20.1627C22.2379 20.2415 22.4589 20.3576 22.6069 20.5111C22.7549 20.6624 22.8289 20.8519 22.8289 21.0795C22.8289 21.2284 22.793 21.3413 22.7211 21.4184C22.6513 21.496 22.5424 21.5489 22.3944 21.5771L22.9622 22.7078L22.4325 22.5658L21.9631 21.5502ZM21.7252 21.145L21.9694 21.2104C22.0942 21.2438 22.1883 21.2406 22.2517 21.2007C22.3151 21.1586 22.3468 21.0751 22.3468 20.9504C22.3468 20.8343 22.313 20.741 22.2453 20.6703C22.1798 20.598 22.0762 20.5429 21.9345 20.5049L21.7252 20.4489V21.145ZM24.7414 20.9123L24.0373 22.1388V22.9959L23.5711 22.8709V22.0172L22.867 20.41L23.3776 20.5468L23.8153 21.6952L24.2498 20.7805L24.7414 20.9123Z" fill="white"/>
<rect width="16.98" height="5.27636" rx="0.782609" transform="matrix(0.961262 0.275637 0 1 15.5142 28.5059)" fill="white" fill-opacity="0.5"/>
<defs>
<linearGradient id="paint0_linear_13756_30399" x1="24.1878" y1="5.93482" x2="24.1878" y2="31.9567" gradientUnits="userSpaceOnUse">
<stop stop-color="#1975FF"/>
<stop offset="1" stop-color="#0F4699"/>
</linearGradient>
<linearGradient id="paint1_linear_13756_30399" x1="17.7967" y1="10.9563" x2="17.7967" y2="36.9782" gradientUnits="userSpaceOnUse">
<stop stop-color="#1975FF"/>
<stop offset="1" stop-color="#0F4699"/>
</linearGradient>
<clipPath id="clip0_13756_30399">
<rect width="7.82609" height="7.82609" fill="white" transform="matrix(0.965926 0.258819 0 1 8.20947 5.10938)"/>
</clipPath>
<clipPath id="clip1_13756_30399">
<rect width="7.82609" height="7.82609" fill="white" transform="matrix(0.965926 0.258819 0 1 1.81836 10.1309)"/>
</clipPath>
</defs>
</svg>
